# ProBuilder 5.0.4
# https://unity3d.com/unity/features/worldbuilding/probuilder
# 05/07/2022 12:34:46

mtllib ./Chimney.mtl
o Chimney

g Cube (1)
v 0.1249846 -2.004 -0.09799957
v -0.6088716 -2.004 -0.09799957
v 0.1249919 0.03084135 -0.0980072
v -0.6088643 0.03084131 -0.0980072
v -0.6088716 -2.004 -1.011314
v -0.6088643 0.03084131 -1.011307
v 0.1249846 -2.004 -1.011314
v 0.1249919 0.03084135 -1.011307

vt -1.54078E-05 -1.191807E-07
vt -0.7338716 -1.191807E-07
vt -8.625007E-06 2.034841
vt -0.7338648 2.034841
vt -0.9133224 -2.548325E-06
vt -0.9133148 2.034838
vt 0.7338716 -3.543603E-06
vt 0.7338648 2.034837
vt 0.9133224 -1.192606E-07
vt 0.9133148 2.034841
vt -1.54078E-05 -0.9133224
vt -0.7338716 -0.9133224

vn 9.948807E-13 3.749381E-06 1
vn -1 3.575346E-06 0
vn 9.948807E-13 3.749381E-06 -1
vn 1 -3.598673E-06 0
vn -2.653453E-07 -1 0

usemtl HouseGrey
f 3/3/1 4/4/1 2/2/1 1/1/1
f 4/3/2 6/6/2 5/5/2 2/1/2
f 6/8/3 8/3/3 7/1/3 5/7/3
f 8/10/4 3/3/4 1/1/4 7/9/4
f 1/1/5 2/2/5 5/12/5 7/11/5

g Cube (2)
v 0.2566746 -4.849423E-07 -1.525879E-05
v -0.7338716 7.552011E-08 -7.629395E-06
v 0.2567052 0.2475314 -1.525879E-05
v -0.7338649 0.2475314 -1.525879E-05
v -0.7338954 -4.849423E-07 -1.158936
v -0.7338649 0.2475314 -1.158936
v 0.2566746 -4.849423E-07 -1.158936
v 0.2567052 0.2475314 -1.158936
v -0.5664454 -1.192891 -0.1936493
v 0.08541009 -1.192891 -0.2009583
v 0.08571526 -1.192891 -0.9732819
v -0.5647669 -1.192891 -0.9490051
v -0.5647532 0.2475316 -0.9489985
v -0.5664259 0.2475313 -0.1936483
v 0.08572668 0.2475314 -0.9732808
v 0.08542632 0.2475314 -0.2009614

vt 0.2566746 -4.168349E-07
vt -0.7338716 -1.192093E-07
vt 0.2567051 0.2475315
vt -0.733865 0.2475312
vt -2.272684E-05 -1.973489E-05
vt -1.158951 -2.029535E-05
vt -3.03561E-05 0.2475116
vt -1.158951 0.2475116
vt 0.7338954 -6.796781E-07
vt -0.2566746 -4.168349E-07
vt 0.733865 0.2475312
vt -0.2567051 0.2475315
vt 1.158936 3.116612E-05
vt 1.158936 0.2475631
vt 0.2566746 -1.158936
vt -0.7338954 -1.158936
vt 0.5664455 -0.1936493
vt -0.08540996 -0.2009583
vt -0.08571514 -0.9732819
vt 0.564767 -0.9490051
vt 0.5647532 -0.9489985
vt 0.7338649 -1.158936
vt -0.2567052 -1.158936
vt 0.1923935 0.2475237
vt 0.9477455 0.2475239
vt 0.1923945 -1.192898
vt 0.9477522 -1.192898
vt -0.08767532 0.2475318
vt 0.5642179 0.2475316
vt -0.08765944 -1.19289
vt 0.564237 -1.192891
vt -0.5289588 0.2475266
vt 0.1219742 0.2475266
vt -0.5289719 -1.192896
vt 0.1219632 -1.192895
vt -0.9733141 0.2475321
vt -0.2009946 0.2475321
vt -0.9733151 -1.19289
vt -0.2009915 -1.19289

vn 7.70221E-06 -9.497749E-10 1
vn -1 2.699438E-05 2.057233E-05
vn 0 0 -1
vn 1 -0.000123312 0
vn 0 -1 0
vn -1.004175E-07 1 -8.127571E-10
vn 0.9999975 -1.354984E-05 0.002214365
vn -0.0112183 -2.066602E-06 -0.9999371
vn 0.03730399 -4.985462E-06 0.999304
vn -0.9999999 7.926089E-06 -0.0003889099

usemtl Lit
f 12/21/11 22/29/11 21/33/11
f 12/21/11 21/33/11 14/34/11
f 21/33/11 23/31/11 14/34/11
f 23/31/11 16/35/11 14/34/11
f 24/30/11 16/35/11 23/31/11
f 24/30/11 11/22/11 16/35/11
f 11/22/11 24/30/11 22/29/11
f 12/21/11 11/22/11 22/29/11
f 12/16/6 10/14/6 9/13/6
f 9/13/6 11/15/6 12/16/6
f 14/20/7 13/18/7 10/17/7
f 10/17/7 12/19/7 14/20/7
f 16/24/8 15/22/8 13/21/8
f 13/21/8 14/23/8 16/24/8
f 11/19/9 9/17/9 15/25/9
f 15/25/9 16/26/9 11/19/9
f 10/14/10 13/28/10 15/27/10
f 15/27/10 9/13/10 10/14/10
f 19/31/11 20/32/11 17/29/11
f 17/29/11 18/30/11 19/31/11
f 20/39/12 21/37/12 22/36/12
f 22/36/12 17/38/12 20/39/12
f 17/43/13 22/41/13 24/40/13
f 24/40/13 18/42/13 17/43/13
f 19/47/14 23/45/14 21/44/14
f 21/44/14 20/46/14 19/47/14
f 18/51/15 24/49/15 23/48/15
f 23/48/15 19/50/15 18/51/15

