# ProBuilder 5.0.4
# https://unity3d.com/unity/features/worldbuilding/probuilder
# 05/07/2022 12:33:02

mtllib ./WindowTriangle.mtl
o WindowTriangle

g Cube (44)
v 1.450806 -1.619999 0.1032867
v 1.195587 -1.619999 0.1032867
v 1.450806 -0.382803 0.1032867
v 1.195587 -0.382803 0.1032867
v 1.195587 -1.619999 -0.1539917
v 1.195587 -0.382803 -0.1539917
v 1.450836 -1.619999 -0.154007
v 1.450836 -0.382803 -0.154007

vt 7.75882 0
vt 7.503601 0
vt 7.75882 1.237196
vt 7.503601 1.237196
vt 0.2572937 0
vt 1.525879E-05 0
vt 0.2572937 1.237196
vt 1.525879E-05 1.237196
vt -7.503601 0
vt -7.75885 0
vt -7.503601 1.237196
vt -7.75885 1.237196
vt 0.0009202764 0
vt -0.2563734 0
vt 0.0009202764 1.237196
vt -0.2563734 1.237196
vt -7.75882 0.2572937
vt -7.503601 0.2572937
vt 7.75882 0.2572937
vt 7.503601 0.2572937

vn 0 0 1
vn -1 0 0
vn -5.978001E-05 0 -1
vn 1 0 0.0001186099
vn 0 1 0
vn 0 -1 0

usemtl wood
f 3/3/1 4/4/1 2/2/1 1/1/1
f 4/7/2 6/8/2 5/6/2 2/5/2
f 6/11/3 8/12/3 7/10/3 5/9/3
f 8/15/4 3/16/4 1/14/4 7/13/4
f 8/10/5 6/9/5 4/18/5 3/17/5
f 1/19/6 2/20/6 5/2/6 7/1/6

g Cube (43)
v -0.1631775 -1.619999 0.1032867
v -0.418396 -1.619999 0.1032867
v -0.1631775 -0.3617439 0.1032867
v -0.418396 -0.3617439 0.1032867
v -0.418396 -1.619999 -0.1539917
v -0.418396 -0.3617439 -0.1539917
v -0.163147 -1.619999 -0.154007
v -0.163147 -0.3617439 -0.154007

vt 7.75882 0
vt 7.503601 0
vt 7.75882 1.258255
vt 7.503601 1.258255
vt 0.2572937 0
vt 1.525879E-05 0
vt 0.2572937 1.258255
vt 1.525879E-05 1.258255
vt -7.503601 0
vt -7.75885 0
vt -7.503601 1.258255
vt -7.75885 1.258255
vt 0.0009202764 0
vt -0.2563734 0
vt 0.0009202764 1.258255
vt -0.2563734 1.258255
vt -7.75882 0.2572937
vt -7.503601 0.2572937
vt 7.75882 0.2572937
vt 7.503601 0.2572937

vn 0 0 1
vn -1 0 0
vn -5.978001E-05 0 -1
vn 1 0 0.0001186099
vn 0 1 0
vn 0 -1 0

usemtl wood
f 11/23/7 12/24/7 10/22/7 9/21/7
f 12/27/8 14/28/8 13/26/8 10/25/8
f 14/31/9 16/32/9 15/30/9 13/29/9
f 16/35/10 11/36/10 9/34/10 15/33/10
f 16/30/11 14/29/11 12/38/11 11/37/11
f 9/39/12 10/40/12 13/22/12 15/21/12

g Cube (45)
v 1.516602 -1.819294 0.1588135
v 1.516602 -1.819294 -0.09640503
v -0.5398178 -1.819294 0.1588135
v -0.5398178 -1.819294 -0.09640503
v 1.516602 -1.562016 -0.09640503
v -0.5398178 -1.562016 -0.09640503
v 1.516602 -1.562 0.158844
v -0.5398178 -1.562 0.158844

vt 7.75882 -0.3945923
vt 7.503601 -0.3945923
vt 7.75882 1.661827
vt 7.503601 1.661827
vt 0.2572937 -0.3945923
vt 1.525879E-05 -0.3945923
vt 0.2572937 1.661827
vt 1.525879E-05 1.661827
vt -7.503601 -0.3945923
vt -7.75885 -0.3945923
vt -7.503601 1.661827
vt -7.75885 1.661827
vt 0.0009202763 -0.3945923
vt -0.2563734 -0.3945923
vt 0.0009202763 1.661827
vt -0.2563734 1.661827
vt -7.75882 0.2572937
vt -7.503601 0.2572937
vt -7.75885 0
vt -7.503601 1.525879E-05
vt 7.75885 0
vt 7.503601 1.525879E-05
vt 7.75882 0.2572937
vt 7.503601 0.2572937

vn 0 -1 0
vn 0 0 -1
vn 0 1 -5.978001E-05
vn 0 -0.0001186099 1
vn -1 0 0
vn 1 0 0

usemtl wood
f 19/43/13 20/44/13 18/42/13 17/41/13
f 20/47/14 22/48/14 21/46/14 18/45/14
f 22/51/15 24/52/15 23/50/15 21/49/15
f 24/55/16 19/56/16 17/54/16 23/53/16
f 24/59/17 22/60/17 20/58/17 19/57/17
f 17/63/18 18/64/18 21/62/18 23/61/18

g Cube (46)
v 1.516084 -0.709953 0.1588144
v 1.516084 -0.709953 -0.09640417
v 0.2301334 0.576004 0.1589603
v 0.2301335 0.5760021 -0.09625873
v 1.698007 -0.5280297 -0.09640414
v 0.4120488 0.7579269 -0.0962587
v 1.698018 -0.5280189 0.1588449
v 0.4120794 0.7579365 0.1589908

vt 7.75882 -0.394593
vt 7.503601 -0.394593
vt 7.758965 1.42402
vt 7.503747 1.424019
vt 0.2572937 -0.3939922
vt 1.525879E-05 -0.3939922
vt 0.2572903 1.42462
vt 1.647712E-05 1.424626
vt -7.503601 -0.3945923
vt -7.75885 -0.3945923
vt -7.503747 1.424026
vt -7.758996 1.424011
vt 0.0009202763 -0.3939698
vt -0.2563734 -0.3939698
vt 0.0009321697 1.424634
vt -0.2563686 1.424643
vt -7.758974 0.2573417
vt -7.503755 0.2573431
vt -7.759004 4.090371E-05
vt -7.503755 6.925742E-05
vt 7.75885 0
vt 7.503601 1.525879E-05
vt 7.75882 0.2572937
vt 7.503601 0.2572937

vn -0.7071087 -0.707105 -1.192093E-07
vn -5.642849E-05 5.65477E-05 -1
vn 0.7071064 0.7071073 -5.966081E-05
vn -2.725627E-05 -0.0001406027 1
vn -0.7070806 0.707133 -5.605231E-06
vn 0.7071068 -0.7071068 0

usemtl wood
f 27/67/19 28/68/19 26/66/19 25/65/19
f 28/71/20 30/72/20 29/70/20 26/69/20
f 30/75/21 32/76/21 31/74/21 29/73/21
f 32/79/22 27/80/22 25/78/22 31/77/22
f 32/83/23 30/84/23 28/82/23 27/81/23
f 25/87/24 26/88/24 29/86/24 31/85/24

g Cube (47)
v 0.5744629 -1.619999 0.0868988
v 0.456604 -1.619999 0.0868988
v 0.5744629 0.4341297 0.0868988
v 0.456604 0.4341297 0.0868988
v 0.456604 -1.619999 -0.08598328
v 0.456604 0.4341297 -0.08598328
v 0.5744934 -1.619999 -0.08599854
v 0.5744934 0.4341297 -0.08599854

vt 7.62146 0
vt 7.503601 0
vt 7.62146 2.054129
vt 7.503601 2.054129
vt 0.1728973 0
vt 1.525879E-05 0
vt 0.1728973 2.054129
vt 1.525879E-05 2.054129
vt -7.503601 0
vt -7.62149 0
vt -7.503601 2.054129
vt -7.62149 2.054129
vt 0.001345246 0
vt -0.1715521 0
vt 0.001345246 2.054129
vt -0.1715521 2.054129
vt -7.62146 0.1728973
vt -7.503601 0.1728973
vt 7.62146 0.1728973
vt 7.503601 0.1728973

vn 0 0 1
vn -1 0 0
vn -0.0001294331 0 -1
vn 1 0 0.0001765069
vn 0 1 0
vn 0 -1 0

usemtl wood
f 35/91/25 36/92/25 34/90/25 33/89/25
f 36/95/26 38/96/26 37/94/26 34/93/26
f 38/99/27 40/100/27 39/98/27 37/97/27
f 40/103/28 35/104/28 33/102/28 39/101/28
f 40/98/29 38/97/29 36/106/29 35/105/29
f 33/107/30 34/108/30 37/90/30 39/89/30

g Cube (48)
v 1.328003 -0.8438973 0.08345032
v 1.328003 -0.8438973 -0.03440857
v -0.3338242 -0.8438973 0.08345032
v -0.3338242 -0.8438973 -0.03440857
v 1.328003 -0.6710153 -0.03440857
v -0.3338242 -0.6710153 -0.03440857
v 1.328003 -0.671 0.08348083
v -0.3338242 -0.671 0.08348083

vt 7.62146 0
vt 7.503601 0
vt 7.62146 1.661827
vt 7.503601 1.661827
vt 0.1728973 0
vt 1.525879E-05 0
vt 0.1728973 1.661827
vt 1.525879E-05 1.661827
vt -7.503601 0
vt -7.62149 0
vt -7.503601 1.661827
vt -7.62149 1.661827
vt 0.001345246 0
vt -0.1715521 0
vt 0.001345246 1.661827
vt -0.1715521 1.661827
vt -7.62146 0.1728973
vt -7.503601 0.1728973
vt 7.62146 0.1728973
vt 7.503601 0.1728973

vn 0 -1 0
vn 0 0 -1
vn 0 1 -0.0001294331
vn 0 -0.0001765069 1
vn -1 0 0
vn 1 0 0

usemtl wood
f 43/111/31 44/112/31 42/110/31 41/109/31
f 44/115/32 46/116/32 45/114/32 42/113/32
f 46/119/33 48/120/33 47/118/33 45/117/33
f 48/123/34 43/124/34 41/122/34 47/121/34
f 48/118/35 46/117/35 44/126/35 43/125/35
f 41/127/36 42/128/36 45/110/36 47/109/36

g Plane (4)
v -0.2742004 -1.602355 -6.450893E-06
v -0.2373962 -0.3151592 8.674861E-07
v 1.290924 -0.3237366 8.674861E-07
v 1.305084 -1.602355 -6.450893E-06
v 0.3097229 0.2502553 8.674861E-07
v 0.728302 0.2529561 8.674861E-07

vt 0.2742004 1.602354
vt 0.2373962 0.3151592
vt -1.290924 0.3237365
vt -1.305084 1.602354
vt -0.3097229 -0.2502553
vt -0.728302 -0.2529561

vn 0 -5.685524E-06 1

usemtl WindowBlue
f 49/129/37 52/132/37 51/131/37 50/130/37
f 50/130/37 51/131/37 54/134/37 53/133/37

g Cube (49)
v -0.4720857 -0.728953 -0.1008205
v -0.4720857 -0.728953 0.154398
v 0.8250028 0.5681404 -0.1008511
v 0.8250028 0.5681404 0.1543675
v -0.654009 -0.5470297 0.154398
v 0.6430874 0.7500652 0.1543675
v -0.6540198 -0.5470189 -0.100851
v 0.643057 0.7500747 -0.1008815

vt 7.75882 -0.3945928
vt 7.503601 -0.3945928
vt 7.75885 1.439771
vt 7.503632 1.439771
vt 0.2572937 -0.3944674
vt 1.525879E-05 -0.3944674
vt 0.2572901 1.439896
vt 1.630571E-05 1.439903
vt -7.503601 -0.3945923
vt -7.75885 -0.3945923
vt -7.503632 1.439778
vt -7.758881 1.439763
vt 0.0009202763 -0.3944632
vt -0.2563734 -0.3944632
vt 0.0009322665 1.439892
vt -0.2563699 1.4399
vt -7.75885 0.2573355
vt -7.503632 0.2573355
vt -7.758881 3.337279E-05
vt -7.503632 6.166551E-05
vt 7.75885 0
vt 7.503601 1.525879E-05
vt 7.75882 0.2572937
vt 7.503601 0.2572937

vn 0.7071082 -0.7071055 -1.192093E-07
vn 1.188306E-05 1.176385E-05 1
vn -0.7071064 0.7071072 5.989923E-05
vn 7.198729E-05 -9.563322E-05 -1
vn 0.7070845 0.7071291 7.67923E-14
vn -0.7071068 -0.7071068 0

usemtl wood
f 57/137/38 58/138/38 56/136/38 55/135/38
f 58/141/39 60/142/39 59/140/39 56/139/39
f 60/145/40 62/146/40 61/144/40 59/143/40
f 62/149/41 57/150/41 55/148/41 61/147/41
f 62/153/42 60/154/42 58/152/42 57/151/42
f 55/157/43 56/158/43 59/156/43 61/155/43

