# ProBuilder 5.0.4
# https://unity3d.com/unity/features/worldbuilding/probuilder
# 05/07/2022 12:33:20

mtllib ./Window.mtl
o Window

g Cube (44)
v 3.908652 0 -8.659969
v 3.653433 0 -8.659969
v 3.908652 1.661827 -8.659969
v 3.653433 1.661827 -8.659969
v 3.653433 0 -8.917248
v 3.653433 1.661827 -8.917248
v 3.908682 0 -8.917263
v 3.908682 1.661827 -8.917263

vt 7.75882 0
vt 7.503601 0
vt 7.75882 1.661827
vt 7.503601 1.661827
vt 0.2572937 0
vt 1.525879E-05 0
vt 0.2572937 1.661827
vt 1.525879E-05 1.661827
vt -7.503601 0
vt -7.75885 0
vt -7.503601 1.661827
vt -7.75885 1.661827
vt 0.0009202763 0
vt -0.2563734 0
vt 0.0009202763 1.661827
vt -0.2563734 1.661827
vt -7.75882 0.2572937
vt -7.503601 0.2572937
vt 7.75882 0.2572937
vt 7.503601 0.2572937

vn 0 0 1
vn -1 0 0
vn -5.978001E-05 0 -1
vn 1 0 0.0001186099
vn 0 1 0
vn 0 -1 0

usemtl wood
f 3/3/1 4/4/1 2/2/1 1/1/1
f 4/7/2 6/8/2 5/6/2 2/5/2
f 6/11/3 8/12/3 7/10/3 5/9/3
f 8/15/4 3/16/4 1/14/4 7/13/4
f 8/10/5 6/9/5 4/18/5 3/17/5
f 1/19/6 2/20/6 5/2/6 7/1/6

g Cube (43)
v 2.294669 0 -8.659969
v 2.03945 0 -8.659969
v 2.294669 1.661827 -8.659969
v 2.03945 1.661827 -8.659969
v 2.03945 0 -8.917248
v 2.03945 1.661827 -8.917248
v 2.294699 0 -8.917263
v 2.294699 1.661827 -8.917263

vt 7.75882 0
vt 7.503601 0
vt 7.75882 1.661827
vt 7.503601 1.661827
vt 0.2572937 0
vt 1.525879E-05 0
vt 0.2572937 1.661827
vt 1.525879E-05 1.661827
vt -7.503601 0
vt -7.75885 0
vt -7.503601 1.661827
vt -7.75885 1.661827
vt 0.0009202763 0
vt -0.2563734 0
vt 0.0009202763 1.661827
vt -0.2563734 1.661827
vt -7.75882 0.2572937
vt -7.503601 0.2572937
vt 7.75882 0.2572937
vt 7.503601 0.2572937

vn 0 0 1
vn -1 0 0
vn -5.978001E-05 0 -1
vn 1 0 0.0001186099
vn 0 1 0
vn 0 -1 0

usemtl wood
f 11/23/7 12/24/7 10/22/7 9/21/7
f 12/27/8 14/28/8 13/26/8 10/25/8
f 14/31/9 16/32/9 15/30/9 13/29/9
f 16/35/10 11/36/10 9/34/10 15/33/10
f 16/30/11 14/29/11 12/38/11 11/37/11
f 9/39/12 10/40/12 13/22/12 15/21/12

g Cube (45)
v 3.974448 -0.199295 -8.604443
v 3.974448 -0.199295 -8.859661
v 1.918028 -0.199295 -8.604443
v 1.918028 -0.199295 -8.859661
v 3.974448 0.0579834 -8.859661
v 1.918028 0.0579834 -8.859661
v 3.974448 0.05799866 -8.604412
v 1.918028 0.05799866 -8.604412

vt 7.75882 -0.3945923
vt 7.503601 -0.3945923
vt 7.75882 1.661827
vt 7.503601 1.661827
vt 0.2572937 -0.3945923
vt 1.525879E-05 -0.3945923
vt 0.2572937 1.661827
vt 1.525879E-05 1.661827
vt -7.503601 -0.3945923
vt -7.75885 -0.3945923
vt -7.503601 1.661827
vt -7.75885 1.661827
vt 0.0009202763 -0.3945923
vt -0.2563734 -0.3945923
vt 0.0009202763 1.661827
vt -0.2563734 1.661827
vt -7.75882 0.2572937
vt -7.503601 0.2572937
vt -7.75885 0
vt -7.503601 1.525879E-05
vt 7.75885 0
vt 7.503601 1.525879E-05
vt 7.75882 0.2572937
vt 7.503601 0.2572937

vn 0 -1 0
vn 0 0 -1
vn 0 1 -5.978001E-05
vn 0 -0.0001186099 1
vn -1 0 0
vn 1 0 0

usemtl wood
f 19/43/13 20/44/13 18/42/13 17/41/13
f 20/47/14 22/48/14 21/46/14 18/45/14
f 22/51/15 24/52/15 23/50/15 21/49/15
f 24/55/16 19/56/16 17/54/16 23/53/16
f 24/59/17 22/60/17 20/58/17 19/57/17
f 17/63/18 18/64/18 21/62/18 23/61/18

g Cube (46)
v 3.974448 1.531706 -8.604443
v 3.974448 1.531706 -8.859661
v 1.918028 1.531706 -8.604443
v 1.918028 1.531706 -8.859661
v 3.974448 1.788984 -8.859661
v 1.918028 1.788984 -8.859661
v 3.974448 1.789 -8.604412
v 1.918028 1.789 -8.604412

vt 7.75882 -0.3945923
vt 7.503601 -0.3945923
vt 7.75882 1.661827
vt 7.503601 1.661827
vt 0.2572937 -0.3945923
vt 1.525879E-05 -0.3945923
vt 0.2572937 1.661827
vt 1.525879E-05 1.661827
vt -7.503601 -0.3945923
vt -7.75885 -0.3945923
vt -7.503601 1.661827
vt -7.75885 1.661827
vt 0.0009202763 -0.3945923
vt -0.2563734 -0.3945923
vt 0.0009202763 1.661827
vt -0.2563734 1.661827
vt -7.75882 0.2572937
vt -7.503601 0.2572937
vt -7.75885 0
vt -7.503601 1.525879E-05
vt 7.75885 0
vt 7.503601 1.525879E-05
vt 7.75882 0.2572937
vt 7.503601 0.2572937

vn 0 -1 0
vn 0 0 -1
vn 0 1 -5.978001E-05
vn 0 -0.0001186099 1
vn -1 0 0
vn 1 0 0

usemtl wood
f 27/67/19 28/68/19 26/66/19 25/65/19
f 28/71/20 30/72/20 29/70/20 26/69/20
f 30/75/21 32/76/21 31/74/21 29/73/21
f 32/79/22 27/80/22 25/78/22 31/77/22
f 32/83/23 30/84/23 28/82/23 27/81/23
f 25/87/24 26/88/24 29/86/24 31/85/24

g Cube (47)
v 3.032309 0 -8.676357
v 2.91445 0 -8.676357
v 3.032309 1.661827 -8.676357
v 2.91445 1.661827 -8.676357
v 2.91445 0 -8.849239
v 2.91445 1.661827 -8.849239
v 3.03234 0 -8.849255
v 3.03234 1.661827 -8.849255

vt 7.62146 0
vt 7.503601 0
vt 7.62146 1.661827
vt 7.503601 1.661827
vt 0.1728973 0
vt 1.525879E-05 0
vt 0.1728973 1.661827
vt 1.525879E-05 1.661827
vt -7.503601 0
vt -7.62149 0
vt -7.503601 1.661827
vt -7.62149 1.661827
vt 0.001345246 0
vt -0.1715521 0
vt 0.001345246 1.661827
vt -0.1715521 1.661827
vt -7.62146 0.1728973
vt -7.503601 0.1728973
vt 7.62146 0.1728973
vt 7.503601 0.1728973

vn 0 0 1
vn -1 0 0
vn -0.0001294331 0 -1
vn 1 0 0.0001765069
vn 0 1 0
vn 0 -1 0

usemtl wood
f 35/91/25 36/92/25 34/90/25 33/89/25
f 36/95/26 38/96/26 37/94/26 34/93/26
f 38/99/27 40/100/27 39/98/27 37/97/27
f 40/103/28 35/104/28 33/102/28 39/101/28
f 40/98/29 38/97/29 36/106/29 35/105/29
f 33/107/30 34/108/30 37/90/30 39/89/30

g Cube (48)
v 3.785849 0.6931019 -8.679806
v 3.785849 0.6931019 -8.797665
v 2.124022 0.6931019 -8.679806
v 2.124022 0.6931019 -8.797665
v 3.785849 0.865984 -8.797665
v 2.124022 0.865984 -8.797665
v 3.785849 0.8659992 -8.679775
v 2.124022 0.8659992 -8.679775

vt 7.62146 0
vt 7.503601 0
vt 7.62146 1.661827
vt 7.503601 1.661827
vt 0.1728973 0
vt 1.525879E-05 0
vt 0.1728973 1.661827
vt 1.525879E-05 1.661827
vt -7.503601 0
vt -7.62149 0
vt -7.503601 1.661827
vt -7.62149 1.661827
vt 0.001345246 0
vt -0.1715521 0
vt 0.001345246 1.661827
vt -0.1715521 1.661827
vt -7.62146 0.1728973
vt -7.503601 0.1728973
vt 7.62146 0.1728973
vt 7.503601 0.1728973

vn 0 -1 0
vn 0 0 -1
vn 0 1 -0.0001294331
vn 0 -0.0001765069 1
vn -1 0 0
vn 1 0 0

usemtl wood
f 43/111/31 44/112/31 42/110/31 41/109/31
f 44/115/32 46/116/32 45/114/32 42/113/32
f 46/119/33 48/120/33 47/118/33 45/117/33
f 48/123/34 43/124/34 41/122/34 47/121/34
f 48/118/35 46/117/35 44/126/35 43/125/35
f 41/127/36 42/128/36 45/110/36 47/109/36

g Plane (4)
v 3.76293 0.01764445 -8.763263
v 3.762946 1.619999 -8.763256
v 2.183646 0.01764445 -8.763263
v 2.183646 1.619999 -8.763263

vt -1.305084 1.602354
vt -1.305099 -6.35491E-13
vt 0.2742004 1.602354
vt 0.2742004 2.002735E-08

vn 0 -4.025884E-06 1

usemtl WindowBlue
f 49/129/37 50/130/37 52/132/37 51/131/37

