# ProBuilder 5.0.4
# https://unity3d.com/unity/features/worldbuilding/probuilder
# 05/07/2022 12:17:40

mtllib ./BrokenWoodenFence.mtl
o BrokenWoodenFence

g Cube (3)
v -1.501094 0.4334331 0.02684821
v -1.491338 0.4334331 -0.01168501
v -0.4208725 -0.7007244 0.3003612
v -0.4111159 -0.7007244 0.2618279
v -1.62877 0.2941443 -0.04648307
v -1.638527 0.2941443 -0.007949845
v -0.5485485 -0.8400133 0.2270299
v -0.5583051 -0.8400133 0.2655631
v -1.569811 0.3637887 0.009449183
v -0.4451367 -0.8170536 0.2942126
v -1.560054 0.3637887 -0.02908404
v -0.4353801 -0.8170536 0.2556795

vt 0 0
vt -1 0
vt 0 1
vt -1 1
vt 1 0
vt 1 1
vt -0.5 0
vt -0.4999492 1.041156
vt 0.5000046 5.563999E-05
vt 0.4999537 1.041212
vt 0.4999578 -0.0001178752
vt 0.4999578 -1.000116
vt 8.313065E-06 -1
vt 1.000008 -1
vt -0.5 -1
vt -1 -1

vn 0.1374326 0.1392889 0.03479806
vn -0.1374326 -0.1392889 -0.03479806
vn -0.00967929 -4.77827E-05 0.03855281
vn 0.009756641 8.884645E-10 -0.03853322
vn 1.065305 -1.141762 0.2697359
vn 1.087855 -1.11891 0.2754456
vn -1.080222 1.134158 -0.273513

usemtl Lit
f 3/3/1 4/4/1 2/2/1 1/1/1
f 7/6/2 8/3/2 6/1/2 5/5/2
f 8/3/3 10/8/3 9/7/3 6/1/3
f 10/8/3 3/4/3 1/2/3 9/7/3
f 2/5/4 4/6/4 12/10/4 11/9/4
f 11/9/4 12/10/4 7/3/4 5/1/4
f 10/11/5 8/1/5 7/13/5 12/12/5
f 3/5/6 10/11/6 12/12/6 4/14/6
f 5/13/7 6/1/7 9/7/7 11/15/7
f 11/15/7 9/7/7 1/2/7 2/16/7

g Cube (5)
v -1.558169 -0.4292916 0.05564867
v -1.558169 -0.2305454 0.05564867
v 1.62177 -0.429292 0.05564867
v 1.62177 -0.2305458 0.05564867
v -1.558169 -0.2305454 0.01589945
v 1.62177 -0.2305458 0.01589945
v -1.558169 -0.4292916 0.01589945
v 1.62177 -0.429292 0.01589945

vt 0 0
vt -1 0
vt 0 1
vt -1 1
vt 1 0
vt 1 1
vt 0 -1
vt 1 -1
vt -1 -1

vn 0 0 0.03974923
vn 2.369238E-08 0.1987462 0
vn 0 0 -0.03974923
vn -2.369238E-08 -0.1987462 0
vn 3.179939 -3.790782E-07 0
vn -3.179939 3.790782E-07 0

usemtl Lit
f 15/19/8 16/20/8 14/18/8 13/17/8
f 16/19/9 18/20/9 17/18/9 14/17/9
f 18/22/10 20/19/10 19/17/10 17/21/10
f 20/22/11 15/19/11 13/17/11 19/21/11
f 20/23/12 18/24/12 16/21/12 15/17/12
f 13/17/13 14/18/13 17/25/13 19/23/13

g Cube (4)
v -0.3591748 -0.7870347 0.4312633
v -0.3591748 -0.7472855 0.4312633
v 1.163808 -0.7870347 0.8879087
v 1.163808 -0.7472855 0.8879087
v -0.3020941 -0.7472855 0.2408905
v -0.3020941 -0.7870347 0.2408905
v 1.220889 -0.7472855 0.6975359
v 1.220889 -0.7870347 0.6975359
v -0.2712174 -0.7870347 0.3539179
v 1.192348 -0.7870347 0.7927223
v -0.2712174 -0.7472855 0.3539179
v 1.192348 -0.7472855 0.7927223

vt 0 0
vt -1 0
vt 0 1
vt -1 1
vt 1 0
vt 1 1
vt -0.5001234 0.03901822
vt -0.5 1
vt 0.5001234 0.0390176
vt 0.5 0.9999994
vt 1 0.9999994
vt 0 0.9999994
vt 0.5 0
vt 0.5 -1
vt 0 -1
vt 1 -1
vt -0.5001227 -1.000001
vt -0.5001227 -1.184021E-06
vt -1 -1

vn -0.05708068 0 0.1903728
vn 0.05708068 0 -0.1903728
vn -1.0083E-06 -0.03974923 -4.674581E-08
vn -1.361245E-07 0.03974923 4.539963E-07
vn 1.522983 0 0.4566454
vn -1.522809 0 -0.4404546
vn -1.513922 0 -0.4700752

usemtl Lit
f 23/28/14 24/29/14 22/27/14 21/26/14
f 27/31/15 28/28/15 26/26/15 25/30/15
f 28/28/16 30/33/16 29/32/16 26/26/16
f 30/33/16 23/29/16 21/27/16 29/32/16
f 22/30/17 24/36/17 32/35/17 31/34/17
f 31/34/17 32/35/17 27/37/17 25/26/17
f 30/38/18 28/26/18 27/40/18 32/39/18
f 23/30/18 30/38/18 32/39/18 24/41/18
f 25/40/19 26/26/19 29/43/19 31/42/19
f 31/42/20 29/43/20 21/27/20 22/44/20

g Cylinder (6)
v -1.462772 -0.771 -0.0779953
v -1.462772 0.729 -0.0779953
v -1.457877 -0.771 -0.0470936
v -1.457877 0.729 -0.0470936
v -1.443673 -0.771 -0.01921678
v -1.443673 0.729 -0.01921678
v -1.42155 -0.771 0.002906401
v -1.42155 0.729 0.002906401
v -1.393673 -0.771 0.01711036
v -1.393673 0.729 0.01711036
v -1.362772 -0.771 0.0220047
v -1.362772 0.729 0.0220047
v -1.33187 -0.771 0.01711036
v -1.33187 0.729 0.01711036
v -1.303993 -0.771 0.002906401
v -1.303993 0.729 0.002906401
v -1.28187 -0.771 -0.01921678
v -1.28187 0.729 -0.01921678
v -1.267666 -0.771 -0.0470936
v -1.267666 0.729 -0.0470936
v -1.262771 -0.771 -0.07799531
v -1.262771 0.729 -0.07799531
v -1.267666 -0.771 -0.108897
v -1.267666 0.729 -0.108897
v -1.28187 -0.771 -0.1367738
v -1.28187 0.729 -0.1367738
v -1.303993 -0.771 -0.158897
v -1.303993 0.729 -0.158897
v -1.33187 -0.771 -0.1731009
v -1.33187 0.729 -0.1731009
v -1.362772 -0.771 -0.1779953
v -1.362772 0.729 -0.1779953
v -1.393673 -0.771 -0.1731009
v -1.393673 0.729 -0.1731009
v -1.42155 -0.771 -0.158897
v -1.42155 0.729 -0.158897
v -1.443673 -0.771 -0.1367738
v -1.443673 0.729 -0.1367738
v -1.457877 -0.771 -0.108897
v -1.457877 0.729 -0.108897
v -1.362772 -0.771 -0.0779953
v -1.362772 0.729 -0.0779953

vt 0 0
vt 0 1
vt 0.1564345 0
vt 0.1564345 1
vt 0.148778 0
vt 0.148778 1
vt 0.3052125 0
vt 0.3052125 1
vt 0.2753362 0
vt 0.2753362 1
vt 0.4317706 0
vt 0.4317706 1
vt 0.367286 0
vt 0.367286 1
vt 0.5237205 0
vt 0.5237205 1
vt 0.4156269 0
vt 0.4156269 1
vt 0.5720614 0
vt 0.5720614 1
vt -0.1564346 0
vt -0.1564346 1
vt -0.3052123 0
vt -0.3052123 1
vt -0.1487779 0
vt -0.1487779 1
vt -0.4317704 0
vt -0.4317704 1
vt -0.2753361 0
vt -0.2753361 1
vt -0.5237206 0
vt -0.5237206 1
vt -0.367286 0
vt -0.367286 1
vt -0.5720614 0
vt -0.5720614 1
vt -0.4156269 0
vt -0.4156269 1
vt 0.5 0
vt 0.02447173 0.1545085
vt -0.5 0
vt -0.02447173 0.1545085
vt 0.0954915 0.2938926
vt -0.0954915 0.2938926
vt 0.2061073 0.4045085
vt -0.2061073 0.4045085
vt 0.3454915 0.4755283
vt -0.3454915 0.4755283
vt 0.5 0.5
vt -0.5 0.5
vt 0.6545085 0.4755283
vt -0.6545085 0.4755283
vt 0.7938926 0.4045085
vt -0.7938926 0.4045085
vt 0.9045085 0.2938926
vt -0.9045085 0.2938926
vt 0.9755282 0.1545085
vt -0.9755282 0.1545085
vt 1 -4.371139E-08
vt -1 -4.371139E-08
vt 0.9755282 -0.1545085
vt -0.9755282 -0.1545085
vt 0.9045085 -0.2938926
vt -0.9045085 -0.2938926
vt 0.7938927 -0.4045084
vt -0.7938927 -0.4045084
vt 0.6545085 -0.4755282
vt -0.6545085 -0.4755282
vt 0.5 -0.5
vt -0.5 -0.5
vt 0.3454914 -0.4755282
vt -0.3454914 -0.4755282
vt 0.2061075 -0.4045086
vt -0.2061075 -0.4045086
vt 0.09549153 -0.2938927
vt -0.09549153 -0.2938927
vt 0.02447173 -0.1545085
vt -0.02447173 -0.1545085

vn -0.2 0 -3.017381E-09
vn -0.1902113 0 0.0618034
vn -0.1618034 0 0.117557
vn -0.117557 0 0.1618034
vn -0.06180338 0 0.1902113
vn 0 0 0.2
vn 0.06180339 0 0.1902113
vn 0.117557 0 0.1618034
vn 0.1618034 0 0.117557
vn 0.1902113 0 0.06180339
vn 0.2 0 -1.056083E-08
vn 0.1902113 0 -0.06180341
vn 0.1618034 0 -0.117557
vn 0.1175571 0 -0.1618034
vn 0.06180343 0 -0.1902113
vn 1.508691E-09 0 -0.2
vn -0.06180341 0 -0.1902113
vn -0.117557 0 -0.1618034
vn -0.1618034 0 -0.1175571
vn -0.1902113 0 -0.0618034
vn 0 -1.5 0
vn 0 1.5 0

usemtl Lit
f 33/45/41 73/83/41 35/84/41
f 35/84/41 73/83/41 37/87/41
f 37/87/41 73/83/41 39/89/41
f 39/89/41 73/83/41 41/91/41
f 41/91/41 73/83/41 43/93/41
f 43/93/41 73/83/41 45/95/41
f 45/95/41 73/83/41 47/97/41
f 47/97/41 73/83/41 49/99/41
f 49/99/41 73/83/41 51/101/41
f 51/101/41 73/83/41 53/103/41
f 53/103/41 73/83/41 55/105/41
f 55/105/41 73/83/41 57/107/41
f 57/107/41 73/83/41 59/109/41
f 59/109/41 73/83/41 61/111/41
f 61/111/41 73/83/41 63/113/41
f 63/113/41 73/83/41 65/115/41
f 65/115/41 73/83/41 67/117/41
f 67/117/41 73/83/41 69/119/41
f 69/119/41 73/83/41 71/121/41
f 71/121/41 73/83/41 33/45/41
f 36/86/42 74/85/42 34/45/42
f 38/88/42 74/85/42 36/86/42
f 40/90/42 74/85/42 38/88/42
f 42/92/42 74/85/42 40/90/42
f 44/94/42 74/85/42 42/92/42
f 46/96/42 74/85/42 44/94/42
f 48/98/42 74/85/42 46/96/42
f 50/100/42 74/85/42 48/98/42
f 52/102/42 74/85/42 50/100/42
f 54/104/42 74/85/42 52/102/42
f 56/106/42 74/85/42 54/104/42
f 58/108/42 74/85/42 56/106/42
f 60/110/42 74/85/42 58/108/42
f 62/112/42 74/85/42 60/110/42
f 64/114/42 74/85/42 62/112/42
f 66/116/42 74/85/42 64/114/42
f 68/118/42 74/85/42 66/116/42
f 70/120/42 74/85/42 68/118/42
f 72/122/42 74/85/42 70/120/42
f 34/45/42 74/85/42 72/122/42
f 36/48/22 34/46/21 33/45/21
f 33/45/21 35/47/22 36/48/22
f 38/52/23 36/50/22 35/49/22
f 35/49/22 37/51/23 38/52/23
f 40/56/24 38/54/23 37/53/23
f 37/53/23 39/55/24 40/56/24
f 42/60/25 40/58/24 39/57/24
f 39/57/24 41/59/25 42/60/25
f 44/64/26 42/62/25 41/61/25
f 41/61/25 43/63/26 44/64/26
f 46/64/27 44/62/26 43/61/26
f 43/61/26 45/63/27 46/64/27
f 48/60/28 46/58/27 45/57/27
f 45/57/27 47/59/28 48/60/28
f 50/56/29 48/54/28 47/53/28
f 47/53/28 49/55/29 50/56/29
f 52/52/30 50/50/29 49/49/29
f 49/49/29 51/51/30 52/52/30
f 54/48/31 52/46/30 51/45/30
f 51/45/30 53/47/31 54/48/31
f 56/46/32 54/66/31 53/65/31
f 53/65/31 55/45/32 56/46/32
f 58/70/33 56/68/32 55/67/32
f 55/67/32 57/69/33 58/70/33
f 60/74/34 58/72/33 57/71/33
f 57/71/33 59/73/34 60/74/34
f 62/78/35 60/76/34 59/75/34
f 59/75/34 61/77/35 62/78/35
f 64/82/36 62/80/35 61/79/35
f 61/79/35 63/81/36 64/82/36
f 66/82/37 64/80/36 63/79/36
f 63/79/36 65/81/37 66/82/37
f 68/78/38 66/76/37 65/75/37
f 65/75/37 67/77/38 68/78/38
f 70/74/39 68/72/38 67/71/38
f 67/71/38 69/73/39 70/74/39
f 72/70/40 70/68/39 69/67/39
f 69/67/39 71/69/40 72/70/40
f 34/46/21 72/66/40 71/65/40
f 71/65/40 33/45/21 34/46/21

g Cylinder (7)
v 1.264025 -0.771 -0.0779953
v 1.264025 0.729 -0.0779953
v 1.26892 -0.771 -0.0470936
v 1.26892 0.729 -0.0470936
v 1.283124 -0.771 -0.01921678
v 1.283124 0.729 -0.01921678
v 1.305247 -0.771 0.002906401
v 1.305247 0.729 0.002906401
v 1.333124 -0.771 0.01711036
v 1.333124 0.729 0.01711036
v 1.364025 -0.771 0.0220047
v 1.364025 0.729 0.0220047
v 1.394927 -0.771 0.01711036
v 1.394927 0.729 0.01711036
v 1.422804 -0.771 0.002906401
v 1.422804 0.729 0.002906401
v 1.444927 -0.771 -0.01921678
v 1.444927 0.729 -0.01921678
v 1.459131 -0.771 -0.0470936
v 1.459131 0.729 -0.0470936
v 1.464025 -0.771 -0.07799531
v 1.464025 0.729 -0.07799531
v 1.459131 -0.771 -0.108897
v 1.459131 0.729 -0.108897
v 1.444927 -0.771 -0.1367738
v 1.444927 0.729 -0.1367738
v 1.422804 -0.771 -0.158897
v 1.422804 0.729 -0.158897
v 1.394927 -0.771 -0.1731009
v 1.394927 0.729 -0.1731009
v 1.364025 -0.771 -0.1779953
v 1.364025 0.729 -0.1779953
v 1.333124 -0.771 -0.1731009
v 1.333124 0.729 -0.1731009
v 1.305247 -0.771 -0.158897
v 1.305247 0.729 -0.158897
v 1.283124 -0.771 -0.1367738
v 1.283124 0.729 -0.1367738
v 1.26892 -0.771 -0.108897
v 1.26892 0.729 -0.108897
v 1.364025 -0.771 -0.0779953
v 1.364025 0.729 -0.0779953

vt 0 0
vt 0 1
vt 0.1564345 0
vt 0.1564345 1
vt 0.148778 0
vt 0.148778 1
vt 0.3052125 0
vt 0.3052125 1
vt 0.2753362 0
vt 0.2753362 1
vt 0.4317706 0
vt 0.4317706 1
vt 0.367286 0
vt 0.367286 1
vt 0.5237205 0
vt 0.5237205 1
vt 0.4156269 0
vt 0.4156269 1
vt 0.5720614 0
vt 0.5720614 1
vt -0.1564346 0
vt -0.1564346 1
vt -0.3052123 0
vt -0.3052123 1
vt -0.1487779 0
vt -0.1487779 1
vt -0.4317704 0
vt -0.4317704 1
vt -0.2753361 0
vt -0.2753361 1
vt -0.5237206 0
vt -0.5237206 1
vt -0.367286 0
vt -0.367286 1
vt -0.5720614 0
vt -0.5720614 1
vt -0.4156269 0
vt -0.4156269 1
vt 0.5 0
vt 0.02447173 0.1545085
vt -0.5 0
vt -0.02447173 0.1545085
vt 0.0954915 0.2938926
vt -0.0954915 0.2938926
vt 0.2061073 0.4045085
vt -0.2061073 0.4045085
vt 0.3454915 0.4755283
vt -0.3454915 0.4755283
vt 0.5 0.5
vt -0.5 0.5
vt 0.6545085 0.4755283
vt -0.6545085 0.4755283
vt 0.7938926 0.4045085
vt -0.7938926 0.4045085
vt 0.9045085 0.2938926
vt -0.9045085 0.2938926
vt 0.9755282 0.1545085
vt -0.9755282 0.1545085
vt 1 -4.371139E-08
vt -1 -4.371139E-08
vt 0.9755282 -0.1545085
vt -0.9755282 -0.1545085
vt 0.9045085 -0.2938926
vt -0.9045085 -0.2938926
vt 0.7938927 -0.4045084
vt -0.7938927 -0.4045084
vt 0.6545085 -0.4755282
vt -0.6545085 -0.4755282
vt 0.5 -0.5
vt -0.5 -0.5
vt 0.3454914 -0.4755282
vt -0.3454914 -0.4755282
vt 0.2061075 -0.4045086
vt -0.2061075 -0.4045086
vt 0.09549153 -0.2938927
vt -0.09549153 -0.2938927
vt 0.02447173 -0.1545085
vt -0.02447173 -0.1545085

vn -0.2 0 -3.017381E-09
vn -0.1902113 0 0.0618034
vn -0.1618034 0 0.117557
vn -0.117557 0 0.1618034
vn -0.06180338 0 0.1902113
vn 0 0 0.2
vn 0.06180339 0 0.1902113
vn 0.117557 0 0.1618034
vn 0.1618034 0 0.117557
vn 0.1902113 0 0.06180339
vn 0.2 0 -1.056083E-08
vn 0.1902113 0 -0.06180341
vn 0.1618034 0 -0.117557
vn 0.1175571 0 -0.1618034
vn 0.06180343 0 -0.1902113
vn 1.508691E-09 0 -0.2
vn -0.06180341 0 -0.1902113
vn -0.117557 0 -0.1618034
vn -0.1618034 0 -0.1175571
vn -0.1902113 0 -0.0618034
vn 0 -1.5 0
vn 0 1.5 0

usemtl Lit
f 75/123/63 115/161/63 77/162/63
f 77/162/63 115/161/63 79/165/63
f 79/165/63 115/161/63 81/167/63
f 81/167/63 115/161/63 83/169/63
f 83/169/63 115/161/63 85/171/63
f 85/171/63 115/161/63 87/173/63
f 87/173/63 115/161/63 89/175/63
f 89/175/63 115/161/63 91/177/63
f 91/177/63 115/161/63 93/179/63
f 93/179/63 115/161/63 95/181/63
f 95/181/63 115/161/63 97/183/63
f 97/183/63 115/161/63 99/185/63
f 99/185/63 115/161/63 101/187/63
f 101/187/63 115/161/63 103/189/63
f 103/189/63 115/161/63 105/191/63
f 105/191/63 115/161/63 107/193/63
f 107/193/63 115/161/63 109/195/63
f 109/195/63 115/161/63 111/197/63
f 111/197/63 115/161/63 113/199/63
f 113/199/63 115/161/63 75/123/63
f 78/164/64 116/163/64 76/123/64
f 80/166/64 116/163/64 78/164/64
f 82/168/64 116/163/64 80/166/64
f 84/170/64 116/163/64 82/168/64
f 86/172/64 116/163/64 84/170/64
f 88/174/64 116/163/64 86/172/64
f 90/176/64 116/163/64 88/174/64
f 92/178/64 116/163/64 90/176/64
f 94/180/64 116/163/64 92/178/64
f 96/182/64 116/163/64 94/180/64
f 98/184/64 116/163/64 96/182/64
f 100/186/64 116/163/64 98/184/64
f 102/188/64 116/163/64 100/186/64
f 104/190/64 116/163/64 102/188/64
f 106/192/64 116/163/64 104/190/64
f 108/194/64 116/163/64 106/192/64
f 110/196/64 116/163/64 108/194/64
f 112/198/64 116/163/64 110/196/64
f 114/200/64 116/163/64 112/198/64
f 76/123/64 116/163/64 114/200/64
f 78/126/44 76/124/43 75/123/43
f 75/123/43 77/125/44 78/126/44
f 80/130/45 78/128/44 77/127/44
f 77/127/44 79/129/45 80/130/45
f 82/134/46 80/132/45 79/131/45
f 79/131/45 81/133/46 82/134/46
f 84/138/47 82/136/46 81/135/46
f 81/135/46 83/137/47 84/138/47
f 86/142/48 84/140/47 83/139/47
f 83/139/47 85/141/48 86/142/48
f 88/142/49 86/140/48 85/139/48
f 85/139/48 87/141/49 88/142/49
f 90/138/50 88/136/49 87/135/49
f 87/135/49 89/137/50 90/138/50
f 92/134/51 90/132/50 89/131/50
f 89/131/50 91/133/51 92/134/51
f 94/130/52 92/128/51 91/127/51
f 91/127/51 93/129/52 94/130/52
f 96/126/53 94/124/52 93/123/52
f 93/123/52 95/125/53 96/126/53
f 98/124/54 96/144/53 95/143/53
f 95/143/53 97/123/54 98/124/54
f 100/148/55 98/146/54 97/145/54
f 97/145/54 99/147/55 100/148/55
f 102/152/56 100/150/55 99/149/55
f 99/149/55 101/151/56 102/152/56
f 104/156/57 102/154/56 101/153/56
f 101/153/56 103/155/57 104/156/57
f 106/160/58 104/158/57 103/157/57
f 103/157/57 105/159/58 106/160/58
f 108/160/59 106/158/58 105/157/58
f 105/157/58 107/159/59 108/160/59
f 110/156/60 108/154/59 107/153/59
f 107/153/59 109/155/60 110/156/60
f 112/152/61 110/150/60 109/149/60
f 109/149/60 111/151/61 112/152/61
f 114/148/62 112/146/61 111/145/61
f 111/145/61 113/147/62 114/148/62
f 76/124/43 114/144/62 113/143/62
f 113/143/62 75/123/43 76/124/43

