# ProBuilder 5.0.4
# https://unity3d.com/unity/features/worldbuilding/probuilder
# 05/07/2022 12:27:19

mtllib ./Tent.mtl
o Tent

g Prism
v 2.441078 0.01 -0.597168
v -1.558922 0.01 -0.597168
v 0.4410782 3.01 -0.597168
v -1.558922 0.01 3.402832
v 0.4410782 3.01 3.402832
v -0.5589218 1.51 3.402832
v 1.441078 1.51 3.402832
v 2.441078 0.01 3.402832
v 0.44104 2.011114 3.402832
v 0.44104 3.011114 3.402832

vt 0 0
vt 2 0
vt 1 2
vt 2 -0.8944272
vt 0 -0.8944272
vt 0 1.341641
vt 2 1.341641
vt 2 0.2236068
vt -0.5 1
vt -1.000019 1.334076
vt -1.000019 2.000743
vt -2 0
vt -1.5 1
vt -2 1.118034
vt -2 2.236068
vt 0 2.236068
vt -2 1.952321
vt -1.000025 2.241878
vt 0 1.952323

vn 0 0 -2
vn -1.788854 0.6708204 0
vn 0 0 0
vn 0 0 2
vn 1.788854 0.6708204 0
vn -0.8001549 -1.073776 0.5549141
vn 0.8001659 -1.073765 0.5549141
vn 1.600332 -0.8996682 0
vn 7.311503E-06 -1.01574 0.3699428
vn -1.60031 -0.8996902 0

usemtl Lit
f 1/1/1 2/2/1 3/3/1
f 2/5/2 4/4/2 6/8/2
f 3/6/2 2/5/2 6/8/2
f 3/6/2 6/8/2 5/7/2
f 5/15/5 7/14/5 3/16/5
f 7/14/5 1/1/5 3/16/5
f 7/14/5 8/12/5 1/1/5
f 1/1/6 8/19/10 9/18/9
f 1/1/6 9/18/9 2/12/7
f 4/17/8 2/12/7 9/18/9
f 10/11/3 9/10/4 8/1/3
f 8/1/3 7/9/1 10/11/3
f 4/12/3 9/10/4 10/11/3
f 10/11/3 6/13/1 4/12/3

g Cube
v 0.5 -0.091 3.377991
v 0.4 -0.091 3.377991
v 0.5 2.909 3.377991
v 0.4 2.909 3.377991
v 0.4 -0.091 3.277991
v 0.4 2.909 3.277991
v 0.5 -0.091 3.277991
v 0.5 2.909 3.277991

vt 0 0
vt -1 0
vt 0 1
vt -1 1
vt 1 0
vt 1 1
vt 0 -1
vt 1 -1
vt -1 -1

vn 0 0 0.1
vn -0.1 0 0
vn 0 0 -0.1
vn 0.1 0 0
vn 0 3 0
vn 0 -3 0

usemtl Lit
f 13/22/11 14/23/11 12/21/11 11/20/11
f 14/22/12 16/23/12 15/21/12 12/20/12
f 16/25/13 18/22/13 17/20/13 15/24/13
f 18/25/14 13/22/14 11/20/14 17/24/14
f 18/26/15 16/27/15 14/24/15 13/20/15
f 11/20/16 12/21/16 15/28/16 17/26/16

g Cylinder
v 0 0 0
v 0 0.1 0
v -0.2317628 0 0.07341518
v -0.2317628 0.1 0.07341518
v -0.4408391 0 0.2864745
v -0.4408391 0.1 0.2864745
v -0.6067629 0 0.6183221
v -0.6067629 0.1 0.6183221
v -0.7132927 0 1.036475
v -0.7132927 0.1 1.036475
v -0.7500004 0 1.5
v -0.7500004 0.1 1.5
v -0.7132928 0 1.963526
v -0.7132928 0.1 1.963526
v -0.6067632 0 2.381678
v -0.6067632 0.1 2.381678
v -0.4408393 0 2.713526
v -0.4408393 0.1 2.713526
v -0.2317632 0 2.926585
v -0.2317632 0.1 2.926585
v -2.920608E-07 0 3
v -2.920608E-07 0.1 3
v 0.2317624 0 2.926585
v 0.2317624 0.1 2.926585
v 0.4408386 0 2.713526
v 0.4408386 0.1 2.713526
v 0.6067625 0 2.381679
v 0.6067625 0.1 2.381679
v 0.7132923 0 1.963526
v 0.7132923 0.1 1.963526
v 0.75 0 1.5
v 0.75 0.1 1.5
v 0.7132924 0 1.036475
v 0.7132924 0.1 1.036475
v 0.6067629 0 0.6183226
v 0.6067629 0.1 0.6183226
v 0.4408391 0 0.2864747
v 0.4408391 0.1 0.2864747
v 0.2317628 0 0.07341523
v 0.2317628 0.1 0.07341523
v -1.788139E-07 0 1.5
v -1.788139E-07 0.1 1.5

vt 0 0
vt 0 1
vt 0.1564345 0
vt 0.1564345 1
vt 0.148778 0
vt 0.148778 1
vt 0.3052125 0
vt 0.3052125 1
vt 0.2753362 0
vt 0.2753362 1
vt 0.4317706 0
vt 0.4317706 1
vt 0.367286 0
vt 0.367286 1
vt 0.5237205 0
vt 0.5237205 1
vt 0.4156269 0
vt 0.4156269 1
vt 0.5720614 0
vt 0.5720614 1
vt -0.1564346 0
vt -0.1564346 1
vt -0.3052123 0
vt -0.3052123 1
vt -0.1487779 0
vt -0.1487779 1
vt -0.4317704 0
vt -0.4317704 1
vt -0.2753361 0
vt -0.2753361 1
vt -0.5237206 0
vt -0.5237206 1
vt -0.367286 0
vt -0.367286 1
vt -0.5720614 0
vt -0.5720614 1
vt -0.4156269 0
vt -0.4156269 1
vt 0.5 0
vt 0.02447173 0.1545085
vt -0.5 0
vt -0.02447173 0.1545085
vt 0.0954915 0.2938926
vt -0.0954915 0.2938926
vt 0.2061073 0.4045085
vt -0.2061073 0.4045085
vt 0.3454915 0.4755283
vt -0.3454915 0.4755283
vt 0.5 0.5
vt -0.5 0.5
vt 0.6545085 0.4755283
vt -0.6545085 0.4755283
vt 0.7938926 0.4045085
vt -0.7938926 0.4045085
vt 0.9045085 0.2938926
vt -0.9045085 0.2938926
vt 0.9755282 0.1545085
vt -0.9755282 0.1545085
vt 1 -4.371139E-08
vt -1 -4.371139E-08
vt 0.9755282 -0.1545085
vt -0.9755282 -0.1545085
vt 0.9045085 -0.2938926
vt -0.9045085 -0.2938926
vt 0.7938927 -0.4045084
vt -0.7938927 -0.4045084
vt 0.6545085 -0.4755282
vt -0.6545085 -0.4755282
vt 0.5 -0.5
vt -0.5 -0.5
vt 0.3454914 -0.4755282
vt -0.3454914 -0.4755282
vt 0.2061075 -0.4045086
vt -0.2061075 -0.4045086
vt 0.09549153 -0.2938927
vt -0.09549153 -0.2938927
vt 0.02447173 -0.1545085
vt -0.02447173 -0.1545085

vn 3.802582E-07 0 -3
vn -0.4635253 0 -2.85317
vn -0.8816778 0 -2.427052
vn -1.213526 0 -1.763356
vn -1.426585 0 -0.9270511
vn -1.5 0 -1.788139E-07
vn -1.426585 0 0.9270508
vn -1.213526 0 1.763356
vn -0.8816783 0 2.427052
vn -0.4635259 0 2.85317
vn -2.784216E-07 0 3
vn 0.4635253 0 2.85317
vn 0.8816776 0 2.427052
vn 1.213525 0 1.763357
vn 1.426585 0 0.9270517
vn 1.5 0 2.014443E-07
vn 1.426585 0 -0.9270511
vn 1.213526 0 -1.763356
vn 0.8816785 0 -2.427051
vn 0.463526 0 -2.85317
vn 0 -0.1 0
vn 0 0.1 0

usemtl Lit
f 19/29/37 59/67/37 21/68/37
f 21/68/37 59/67/37 23/71/37
f 23/71/37 59/67/37 25/73/37
f 25/73/37 59/67/37 27/75/37
f 27/75/37 59/67/37 29/77/37
f 29/77/37 59/67/37 31/79/37
f 31/79/37 59/67/37 33/81/37
f 33/81/37 59/67/37 35/83/37
f 35/83/37 59/67/37 37/85/37
f 37/85/37 59/67/37 39/87/37
f 39/87/37 59/67/37 41/89/37
f 41/89/37 59/67/37 43/91/37
f 43/91/37 59/67/37 45/93/37
f 45/93/37 59/67/37 47/95/37
f 47/95/37 59/67/37 49/97/37
f 49/97/37 59/67/37 51/99/37
f 51/99/37 59/67/37 53/101/37
f 53/101/37 59/67/37 55/103/37
f 55/103/37 59/67/37 57/105/37
f 57/105/37 59/67/37 19/29/37
f 22/70/38 60/69/38 20/29/38
f 24/72/38 60/69/38 22/70/38
f 26/74/38 60/69/38 24/72/38
f 28/76/38 60/69/38 26/74/38
f 30/78/38 60/69/38 28/76/38
f 32/80/38 60/69/38 30/78/38
f 34/82/38 60/69/38 32/80/38
f 36/84/38 60/69/38 34/82/38
f 38/86/38 60/69/38 36/84/38
f 40/88/38 60/69/38 38/86/38
f 42/90/38 60/69/38 40/88/38
f 44/92/38 60/69/38 42/90/38
f 46/94/38 60/69/38 44/92/38
f 48/96/38 60/69/38 46/94/38
f 50/98/38 60/69/38 48/96/38
f 52/100/38 60/69/38 50/98/38
f 54/102/38 60/69/38 52/100/38
f 56/104/38 60/69/38 54/102/38
f 58/106/38 60/69/38 56/104/38
f 20/29/38 60/69/38 58/106/38
f 22/32/18 20/30/17 19/29/17
f 19/29/17 21/31/18 22/32/18
f 24/36/19 22/34/18 21/33/18
f 21/33/18 23/35/19 24/36/19
f 26/40/20 24/38/19 23/37/19
f 23/37/19 25/39/20 26/40/20
f 28/44/21 26/42/20 25/41/20
f 25/41/20 27/43/21 28/44/21
f 30/48/22 28/46/21 27/45/21
f 27/45/21 29/47/22 30/48/22
f 32/48/23 30/46/22 29/45/22
f 29/45/22 31/47/23 32/48/23
f 34/44/24 32/42/23 31/41/23
f 31/41/23 33/43/24 34/44/24
f 36/40/25 34/38/24 33/37/24
f 33/37/24 35/39/25 36/40/25
f 38/36/26 36/34/25 35/33/25
f 35/33/25 37/35/26 38/36/26
f 40/32/27 38/30/26 37/29/26
f 37/29/26 39/31/27 40/32/27
f 42/30/28 40/50/27 39/49/27
f 39/49/27 41/29/28 42/30/28
f 44/54/29 42/52/28 41/51/28
f 41/51/28 43/53/29 44/54/29
f 46/58/30 44/56/29 43/55/29
f 43/55/29 45/57/30 46/58/30
f 48/62/31 46/60/30 45/59/30
f 45/59/30 47/61/31 48/62/31
f 50/66/32 48/64/31 47/63/31
f 47/63/31 49/65/32 50/66/32
f 52/66/33 50/64/32 49/63/32
f 49/63/32 51/65/33 52/66/33
f 54/62/34 52/60/33 51/59/33
f 51/59/33 53/61/34 54/62/34
f 56/58/35 54/56/34 53/55/34
f 53/55/34 55/57/35 56/58/35
f 58/54/36 56/52/35 55/51/35
f 55/51/35 57/53/36 58/54/36
f 20/30/17 58/50/36 57/49/36
f 57/49/36 19/29/17 20/30/17

