# ProBuilder 5.0.4
# https://unity3d.com/unity/features/worldbuilding/probuilder
# 05/07/2022 12:12:54

mtllib ./WoodenFence3.mtl
o WoodenFence3

g Cube (3)
v -1.559372 0.2370292 0.0556488
v -1.537274 0.434543 0.0556488
v 1.600849 -0.1165377 0.0556488
v 1.622947 0.08097608 0.0556488
v -1.537274 0.434543 0.01589958
v 1.622947 0.08097608 0.01589958
v -1.559372 0.2370292 0.01589958
v 1.600849 -0.1165377 0.01589958

vt 0 0
vt -1 0
vt 0 1
vt -1 1
vt 1 0
vt 1 1
vt 0 -1
vt 1 -1
vt -1 -1

vn 0 0 0.03974923
vn 0.02209793 0.1975138 0
vn 0 0 -0.03974923
vn -0.02209793 -0.1975138 0
vn 3.160221 -0.3535669 0
vn -3.160221 0.3535669 0

usemtl Lit
f 3/3/1 4/4/1 2/2/1 1/1/1
f 4/3/2 6/4/2 5/2/2 2/1/2
f 6/6/3 8/3/3 7/1/3 5/5/3
f 8/6/4 3/3/4 1/1/4 7/5/4
f 8/7/5 6/8/5 4/5/5 3/1/5
f 1/1/6 2/2/6 5/9/6 7/7/6

g Cube (5)
v -1.558169 -0.4292916 0.05564867
v -1.558169 -0.2305454 0.05564867
v 1.62177 -0.429292 0.05564867
v 1.62177 -0.2305458 0.05564867
v -1.558169 -0.2305454 0.01589945
v 1.62177 -0.2305458 0.01589945
v -1.558169 -0.4292916 0.01589945
v 1.62177 -0.429292 0.01589945

vt 0 0
vt -1 0
vt 0 1
vt -1 1
vt 1 0
vt 1 1
vt 0 -1
vt 1 -1
vt -1 -1

vn 0 0 0.03974923
vn 2.369238E-08 0.1987462 0
vn 0 0 -0.03974923
vn -2.369238E-08 -0.1987462 0
vn 3.179939 -3.790782E-07 0
vn -3.179939 3.790782E-07 0

usemtl Lit
f 11/12/7 12/13/7 10/11/7 9/10/7
f 12/12/8 14/13/8 13/11/8 10/10/8
f 14/15/9 16/12/9 15/10/9 13/14/9
f 16/15/10 11/12/10 9/10/10 15/14/10
f 16/16/11 14/17/11 12/14/11 11/10/11
f 9/10/12 10/11/12 13/18/12 15/16/12

g Cylinder (4)
v -1.458797 -0.771 -0.0779953
v -1.458797 0.729 -0.0779953
v -1.453902 -0.771 -0.0470936
v -1.453902 0.729 -0.0470936
v -1.439698 -0.771 -0.01921678
v -1.439698 0.729 -0.01921678
v -1.417575 -0.771 0.002906401
v -1.417575 0.729 0.002906401
v -1.389698 -0.771 0.01711036
v -1.389698 0.729 0.01711036
v -1.358797 -0.771 0.0220047
v -1.358797 0.729 0.0220047
v -1.327895 -0.771 0.01711036
v -1.327895 0.729 0.01711036
v -1.300018 -0.771 0.002906401
v -1.300018 0.729 0.002906401
v -1.277895 -0.771 -0.01921678
v -1.277895 0.729 -0.01921678
v -1.263691 -0.771 -0.0470936
v -1.263691 0.729 -0.0470936
v -1.258797 -0.771 -0.07799531
v -1.258797 0.729 -0.07799531
v -1.263691 -0.771 -0.108897
v -1.263691 0.729 -0.108897
v -1.277895 -0.771 -0.1367738
v -1.277895 0.729 -0.1367738
v -1.300018 -0.771 -0.158897
v -1.300018 0.729 -0.158897
v -1.327895 -0.771 -0.1731009
v -1.327895 0.729 -0.1731009
v -1.358797 -0.771 -0.1779953
v -1.358797 0.729 -0.1779953
v -1.389698 -0.771 -0.1731009
v -1.389698 0.729 -0.1731009
v -1.417575 -0.771 -0.158897
v -1.417575 0.729 -0.158897
v -1.439698 -0.771 -0.1367738
v -1.439698 0.729 -0.1367738
v -1.453902 -0.771 -0.108897
v -1.453902 0.729 -0.108897
v -1.358797 -0.771 -0.0779953
v -1.358797 0.729 -0.0779953

vt 0 0
vt 0 1
vt 0.1564345 0
vt 0.1564345 1
vt 0.148778 0
vt 0.148778 1
vt 0.3052125 0
vt 0.3052125 1
vt 0.2753362 0
vt 0.2753362 1
vt 0.4317706 0
vt 0.4317706 1
vt 0.367286 0
vt 0.367286 1
vt 0.5237205 0
vt 0.5237205 1
vt 0.4156269 0
vt 0.4156269 1
vt 0.5720614 0
vt 0.5720614 1
vt -0.1564346 0
vt -0.1564346 1
vt -0.3052123 0
vt -0.3052123 1
vt -0.1487779 0
vt -0.1487779 1
vt -0.4317704 0
vt -0.4317704 1
vt -0.2753361 0
vt -0.2753361 1
vt -0.5237206 0
vt -0.5237206 1
vt -0.367286 0
vt -0.367286 1
vt -0.5720614 0
vt -0.5720614 1
vt -0.4156269 0
vt -0.4156269 1
vt 0.5 0
vt 0.02447173 0.1545085
vt -0.5 0
vt -0.02447173 0.1545085
vt 0.0954915 0.2938926
vt -0.0954915 0.2938926
vt 0.2061073 0.4045085
vt -0.2061073 0.4045085
vt 0.3454915 0.4755283
vt -0.3454915 0.4755283
vt 0.5 0.5
vt -0.5 0.5
vt 0.6545085 0.4755283
vt -0.6545085 0.4755283
vt 0.7938926 0.4045085
vt -0.7938926 0.4045085
vt 0.9045085 0.2938926
vt -0.9045085 0.2938926
vt 0.9755282 0.1545085
vt -0.9755282 0.1545085
vt 1 -4.371139E-08
vt -1 -4.371139E-08
vt 0.9755282 -0.1545085
vt -0.9755282 -0.1545085
vt 0.9045085 -0.2938926
vt -0.9045085 -0.2938926
vt 0.7938927 -0.4045084
vt -0.7938927 -0.4045084
vt 0.6545085 -0.4755282
vt -0.6545085 -0.4755282
vt 0.5 -0.5
vt -0.5 -0.5
vt 0.3454914 -0.4755282
vt -0.3454914 -0.4755282
vt 0.2061075 -0.4045086
vt -0.2061075 -0.4045086
vt 0.09549153 -0.2938927
vt -0.09549153 -0.2938927
vt 0.02447173 -0.1545085
vt -0.02447173 -0.1545085

vn -0.2 0 -3.017381E-09
vn -0.1902113 0 0.0618034
vn -0.1618034 0 0.117557
vn -0.117557 0 0.1618034
vn -0.06180338 0 0.1902113
vn 0 0 0.2
vn 0.06180339 0 0.1902113
vn 0.117557 0 0.1618034
vn 0.1618034 0 0.117557
vn 0.1902113 0 0.06180339
vn 0.2 0 -1.056083E-08
vn 0.1902113 0 -0.06180341
vn 0.1618034 0 -0.117557
vn 0.1175571 0 -0.1618034
vn 0.06180343 0 -0.1902113
vn 1.508691E-09 0 -0.2
vn -0.06180341 0 -0.1902113
vn -0.117557 0 -0.1618034
vn -0.1618034 0 -0.1175571
vn -0.1902113 0 -0.0618034
vn 0 -1.5 0
vn 0 1.5 0

usemtl Lit
f 17/19/33 57/57/33 19/58/33
f 19/58/33 57/57/33 21/61/33
f 21/61/33 57/57/33 23/63/33
f 23/63/33 57/57/33 25/65/33
f 25/65/33 57/57/33 27/67/33
f 27/67/33 57/57/33 29/69/33
f 29/69/33 57/57/33 31/71/33
f 31/71/33 57/57/33 33/73/33
f 33/73/33 57/57/33 35/75/33
f 35/75/33 57/57/33 37/77/33
f 37/77/33 57/57/33 39/79/33
f 39/79/33 57/57/33 41/81/33
f 41/81/33 57/57/33 43/83/33
f 43/83/33 57/57/33 45/85/33
f 45/85/33 57/57/33 47/87/33
f 47/87/33 57/57/33 49/89/33
f 49/89/33 57/57/33 51/91/33
f 51/91/33 57/57/33 53/93/33
f 53/93/33 57/57/33 55/95/33
f 55/95/33 57/57/33 17/19/33
f 20/60/34 58/59/34 18/19/34
f 22/62/34 58/59/34 20/60/34
f 24/64/34 58/59/34 22/62/34
f 26/66/34 58/59/34 24/64/34
f 28/68/34 58/59/34 26/66/34
f 30/70/34 58/59/34 28/68/34
f 32/72/34 58/59/34 30/70/34
f 34/74/34 58/59/34 32/72/34
f 36/76/34 58/59/34 34/74/34
f 38/78/34 58/59/34 36/76/34
f 40/80/34 58/59/34 38/78/34
f 42/82/34 58/59/34 40/80/34
f 44/84/34 58/59/34 42/82/34
f 46/86/34 58/59/34 44/84/34
f 48/88/34 58/59/34 46/86/34
f 50/90/34 58/59/34 48/88/34
f 52/92/34 58/59/34 50/90/34
f 54/94/34 58/59/34 52/92/34
f 56/96/34 58/59/34 54/94/34
f 18/19/34 58/59/34 56/96/34
f 20/22/14 18/20/13 17/19/13
f 17/19/13 19/21/14 20/22/14
f 22/26/15 20/24/14 19/23/14
f 19/23/14 21/25/15 22/26/15
f 24/30/16 22/28/15 21/27/15
f 21/27/15 23/29/16 24/30/16
f 26/34/17 24/32/16 23/31/16
f 23/31/16 25/33/17 26/34/17
f 28/38/18 26/36/17 25/35/17
f 25/35/17 27/37/18 28/38/18
f 30/38/19 28/36/18 27/35/18
f 27/35/18 29/37/19 30/38/19
f 32/34/20 30/32/19 29/31/19
f 29/31/19 31/33/20 32/34/20
f 34/30/21 32/28/20 31/27/20
f 31/27/20 33/29/21 34/30/21
f 36/26/22 34/24/21 33/23/21
f 33/23/21 35/25/22 36/26/22
f 38/22/23 36/20/22 35/19/22
f 35/19/22 37/21/23 38/22/23
f 40/20/24 38/40/23 37/39/23
f 37/39/23 39/19/24 40/20/24
f 42/44/25 40/42/24 39/41/24
f 39/41/24 41/43/25 42/44/25
f 44/48/26 42/46/25 41/45/25
f 41/45/25 43/47/26 44/48/26
f 46/52/27 44/50/26 43/49/26
f 43/49/26 45/51/27 46/52/27
f 48/56/28 46/54/27 45/53/27
f 45/53/27 47/55/28 48/56/28
f 50/56/29 48/54/28 47/53/28
f 47/53/28 49/55/29 50/56/29
f 52/52/30 50/50/29 49/49/29
f 49/49/29 51/51/30 52/52/30
f 54/48/31 52/46/30 51/45/30
f 51/45/30 53/47/31 54/48/31
f 56/44/32 54/42/31 53/41/31
f 53/41/31 55/43/32 56/44/32
f 18/20/13 56/40/32 55/39/32
f 55/39/32 17/19/13 18/20/13

g Cylinder (5)
v 1.264025 -0.771 -0.0779953
v 1.264025 0.729 -0.0779953
v 1.26892 -0.771 -0.0470936
v 1.26892 0.729 -0.0470936
v 1.283124 -0.771 -0.01921678
v 1.283124 0.729 -0.01921678
v 1.305247 -0.771 0.002906401
v 1.305247 0.729 0.002906401
v 1.333124 -0.771 0.01711036
v 1.333124 0.729 0.01711036
v 1.364025 -0.771 0.0220047
v 1.364025 0.729 0.0220047
v 1.394927 -0.771 0.01711036
v 1.394927 0.729 0.01711036
v 1.422804 -0.771 0.002906401
v 1.422804 0.729 0.002906401
v 1.444927 -0.771 -0.01921678
v 1.444927 0.729 -0.01921678
v 1.459131 -0.771 -0.0470936
v 1.459131 0.729 -0.0470936
v 1.464025 -0.771 -0.07799531
v 1.464025 0.729 -0.07799531
v 1.459131 -0.771 -0.108897
v 1.459131 0.729 -0.108897
v 1.444927 -0.771 -0.1367738
v 1.444927 0.729 -0.1367738
v 1.422804 -0.771 -0.158897
v 1.422804 0.729 -0.158897
v 1.394927 -0.771 -0.1731009
v 1.394927 0.729 -0.1731009
v 1.364025 -0.771 -0.1779953
v 1.364025 0.729 -0.1779953
v 1.333124 -0.771 -0.1731009
v 1.333124 0.729 -0.1731009
v 1.305247 -0.771 -0.158897
v 1.305247 0.729 -0.158897
v 1.283124 -0.771 -0.1367738
v 1.283124 0.729 -0.1367738
v 1.26892 -0.771 -0.108897
v 1.26892 0.729 -0.108897
v 1.364025 -0.771 -0.0779953
v 1.364025 0.729 -0.0779953

vt 0 0
vt 0 1
vt 0.1564345 0
vt 0.1564345 1
vt 0.148778 0
vt 0.148778 1
vt 0.3052125 0
vt 0.3052125 1
vt 0.2753362 0
vt 0.2753362 1
vt 0.4317706 0
vt 0.4317706 1
vt 0.367286 0
vt 0.367286 1
vt 0.5237205 0
vt 0.5237205 1
vt 0.4156269 0
vt 0.4156269 1
vt 0.5720614 0
vt 0.5720614 1
vt -0.1564346 0
vt -0.1564346 1
vt -0.3052123 0
vt -0.3052123 1
vt -0.1487779 0
vt -0.1487779 1
vt -0.4317704 0
vt -0.4317704 1
vt -0.2753361 0
vt -0.2753361 1
vt -0.5237206 0
vt -0.5237206 1
vt -0.367286 0
vt -0.367286 1
vt -0.5720614 0
vt -0.5720614 1
vt -0.4156269 0
vt -0.4156269 1
vt 0.5 0
vt 0.02447173 0.1545085
vt -0.5 0
vt -0.02447173 0.1545085
vt 0.0954915 0.2938926
vt -0.0954915 0.2938926
vt 0.2061073 0.4045085
vt -0.2061073 0.4045085
vt 0.3454915 0.4755283
vt -0.3454915 0.4755283
vt 0.5 0.5
vt -0.5 0.5
vt 0.6545085 0.4755283
vt -0.6545085 0.4755283
vt 0.7938926 0.4045085
vt -0.7938926 0.4045085
vt 0.9045085 0.2938926
vt -0.9045085 0.2938926
vt 0.9755282 0.1545085
vt -0.9755282 0.1545085
vt 1 -4.371139E-08
vt -1 -4.371139E-08
vt 0.9755282 -0.1545085
vt -0.9755282 -0.1545085
vt 0.9045085 -0.2938926
vt -0.9045085 -0.2938926
vt 0.7938927 -0.4045084
vt -0.7938927 -0.4045084
vt 0.6545085 -0.4755282
vt -0.6545085 -0.4755282
vt 0.5 -0.5
vt -0.5 -0.5
vt 0.3454914 -0.4755282
vt -0.3454914 -0.4755282
vt 0.2061075 -0.4045086
vt -0.2061075 -0.4045086
vt 0.09549153 -0.2938927
vt -0.09549153 -0.2938927
vt 0.02447173 -0.1545085
vt -0.02447173 -0.1545085

vn -0.2 0 -3.017381E-09
vn -0.1902113 0 0.0618034
vn -0.1618034 0 0.117557
vn -0.117557 0 0.1618034
vn -0.06180338 0 0.1902113
vn 0 0 0.2
vn 0.06180339 0 0.1902113
vn 0.117557 0 0.1618034
vn 0.1618034 0 0.117557
vn 0.1902113 0 0.06180339
vn 0.2 0 -1.056083E-08
vn 0.1902113 0 -0.06180341
vn 0.1618034 0 -0.117557
vn 0.1175571 0 -0.1618034
vn 0.06180343 0 -0.1902113
vn 1.508691E-09 0 -0.2
vn -0.06180341 0 -0.1902113
vn -0.117557 0 -0.1618034
vn -0.1618034 0 -0.1175571
vn -0.1902113 0 -0.0618034
vn 0 -1.5 0
vn 0 1.5 0

usemtl Lit
f 59/97/55 99/135/55 61/136/55
f 61/136/55 99/135/55 63/139/55
f 63/139/55 99/135/55 65/141/55
f 65/141/55 99/135/55 67/143/55
f 67/143/55 99/135/55 69/145/55
f 69/145/55 99/135/55 71/147/55
f 71/147/55 99/135/55 73/149/55
f 73/149/55 99/135/55 75/151/55
f 75/151/55 99/135/55 77/153/55
f 77/153/55 99/135/55 79/155/55
f 79/155/55 99/135/55 81/157/55
f 81/157/55 99/135/55 83/159/55
f 83/159/55 99/135/55 85/161/55
f 85/161/55 99/135/55 87/163/55
f 87/163/55 99/135/55 89/165/55
f 89/165/55 99/135/55 91/167/55
f 91/167/55 99/135/55 93/169/55
f 93/169/55 99/135/55 95/171/55
f 95/171/55 99/135/55 97/173/55
f 97/173/55 99/135/55 59/97/55
f 62/138/56 100/137/56 60/97/56
f 64/140/56 100/137/56 62/138/56
f 66/142/56 100/137/56 64/140/56
f 68/144/56 100/137/56 66/142/56
f 70/146/56 100/137/56 68/144/56
f 72/148/56 100/137/56 70/146/56
f 74/150/56 100/137/56 72/148/56
f 76/152/56 100/137/56 74/150/56
f 78/154/56 100/137/56 76/152/56
f 80/156/56 100/137/56 78/154/56
f 82/158/56 100/137/56 80/156/56
f 84/160/56 100/137/56 82/158/56
f 86/162/56 100/137/56 84/160/56
f 88/164/56 100/137/56 86/162/56
f 90/166/56 100/137/56 88/164/56
f 92/168/56 100/137/56 90/166/56
f 94/170/56 100/137/56 92/168/56
f 96/172/56 100/137/56 94/170/56
f 98/174/56 100/137/56 96/172/56
f 60/97/56 100/137/56 98/174/56
f 62/100/36 60/98/35 59/97/35
f 59/97/35 61/99/36 62/100/36
f 64/104/37 62/102/36 61/101/36
f 61/101/36 63/103/37 64/104/37
f 66/108/38 64/106/37 63/105/37
f 63/105/37 65/107/38 66/108/38
f 68/112/39 66/110/38 65/109/38
f 65/109/38 67/111/39 68/112/39
f 70/116/40 68/114/39 67/113/39
f 67/113/39 69/115/40 70/116/40
f 72/116/41 70/114/40 69/113/40
f 69/113/40 71/115/41 72/116/41
f 74/112/42 72/110/41 71/109/41
f 71/109/41 73/111/42 74/112/42
f 76/108/43 74/106/42 73/105/42
f 73/105/42 75/107/43 76/108/43
f 78/104/44 76/102/43 75/101/43
f 75/101/43 77/103/44 78/104/44
f 80/100/45 78/98/44 77/97/44
f 77/97/44 79/99/45 80/100/45
f 82/98/46 80/118/45 79/117/45
f 79/117/45 81/97/46 82/98/46
f 84/122/47 82/120/46 81/119/46
f 81/119/46 83/121/47 84/122/47
f 86/126/48 84/124/47 83/123/47
f 83/123/47 85/125/48 86/126/48
f 88/130/49 86/128/48 85/127/48
f 85/127/48 87/129/49 88/130/49
f 90/134/50 88/132/49 87/131/49
f 87/131/49 89/133/50 90/134/50
f 92/134/51 90/132/50 89/131/50
f 89/131/50 91/133/51 92/134/51
f 94/130/52 92/128/51 91/127/51
f 91/127/51 93/129/52 94/130/52
f 96/126/53 94/124/52 93/123/52
f 93/123/52 95/125/53 96/126/53
f 98/122/54 96/120/53 95/119/53
f 95/119/53 97/121/54 98/122/54
f 60/98/35 98/118/54 97/117/54
f 97/117/54 59/97/35 60/98/35

